HIERARCHY
ROOT Hips
{
	OFFSET 20.463800 -43.778099 7.826296
	CHANNELS 6 Xposition Yposition Zposition Xrotation Yrotation Zrotation
	JOINT Chest
	{
		OFFSET -0.076000 -8.347801 1.394599
		CHANNELS 6 Xposition Yposition Zposition Xrotation Yrotation Zrotation
		JOINT Chest2
		{
			OFFSET 0.000000 -3.321602 0.000000
			CHANNELS 6 Xposition Yposition Zposition Xrotation Yrotation Zrotation
			JOINT Neck
			{
				OFFSET 0.000000 -7.732101 -0.000001
				CHANNELS 6 Xposition Yposition Zposition Xrotation Yrotation Zrotation
				JOINT Head
				{
					OFFSET 0.000000 -2.173897 0.000000
					CHANNELS 6 Xposition Yposition Zposition Xrotation Yrotation Zrotation
					End Site
					{
						OFFSET 0.000000 -10.080803 -0.000001
					}
				}
			}
			JOINT LeftCollar
			{
				OFFSET 2.718100 -4.670502 -2.003100
				CHANNELS 6 Xposition Yposition Zposition Xrotation Yrotation Zrotation
				JOINT LeftShoulder
				{
					OFFSET 4.147100 0.000000 0.000000
					CHANNELS 6 Xposition Yposition Zposition Xrotation Yrotation Zrotation
					JOINT LeftElbow
					{
						OFFSET 0.000000 10.254799 0.000001
						CHANNELS 6 Xposition Yposition Zposition Xrotation Yrotation Zrotation
						JOINT LeftWrist
						{
							OFFSET 0.000000 12.664398 0.000001
							CHANNELS 6 Xposition Yposition Zposition Xrotation Yrotation Zrotation
							End Site
							{
								OFFSET 0.000000 2.173901 0.000000
							}
						}
					}
				}
			}
			JOINT RightCollar
			{
				OFFSET -2.489500 -4.979698 -2.085300
				CHANNELS 6 Xposition Yposition Zposition Xrotation Yrotation Zrotation
				JOINT RightShoulder
				{
					OFFSET -4.160400 0.000000 0.000000
					CHANNELS 6 Xposition Yposition Zposition Xrotation Yrotation Zrotation
					JOINT RightElbow
					{
						OFFSET 0.000000 10.253998 0.000001
						CHANNELS 6 Xposition Yposition Zposition Xrotation Yrotation Zrotation
						JOINT RightWrist
						{
							OFFSET 0.000000 12.768700 0.000001
							CHANNELS 6 Xposition Yposition Zposition Xrotation Yrotation Zrotation
							End Site
							{
								OFFSET 0.000000 2.173901 0.000000
							}
						}
					}
				}
			}
		}
	}
	JOINT LeftHip
	{
		OFFSET 2.212400 2.641499 -0.073599
		CHANNELS 6 Xposition Yposition Zposition Xrotation Yrotation Zrotation
		JOINT LeftKnee
		{
			OFFSET 0.000000 17.950598 0.000001
			CHANNELS 6 Xposition Yposition Zposition Xrotation Yrotation Zrotation
			JOINT LeftAnkle
			{
				OFFSET 0.000000 19.053900 0.000001
				CHANNELS 6 Xposition Yposition Zposition Xrotation Yrotation Zrotation
				End Site
				{
					OFFSET 0.000000 0.000000 -8.430400
				}
			}
		}
	}
	JOINT RightHip
	{
		OFFSET -2.162800 2.581299 -0.306099
		CHANNELS 6 Xposition Yposition Zposition Xrotation Yrotation Zrotation
		JOINT RightKnee
		{
			OFFSET 0.000000 18.327099 0.000001
			CHANNELS 6 Xposition Yposition Zposition Xrotation Yrotation Zrotation
			JOINT RightAnkle
			{
				OFFSET 0.000000 18.423401 0.000001
				CHANNELS 6 Xposition Yposition Zposition Xrotation Yrotation Zrotation
				End Site
				{
					OFFSET 0.000000 0.000001 -8.995800
				}
			}
		}
	}
}
MOTION
Frames: 10
Frame Time: 0.041667
-16.760401 -46.281403 32.139523 3.764234 -5.279664 7.888390 -0.076000 -8.347801 1.394607 -2.639394 5.790085 5.805539 0.000003 -3.321613 -0.000001 -1.235884 -0.173808 -0.124772 0.000004 -7.732096 0.000009 14.639865 -40.083508 -2.384722 0.000001 -2.173898 0.000003 4.754831 -5.438380 7.344788 2.718102 -4.670502 -2.003095 -7.344665 -10.259782 -8.365685 4.147102 0.000004 0.000004 -12.886899 30.926926 -113.966296 -0.000010 10.254806 0.000002 -40.629862 -44.635348 -16.398902 0.000005 12.664406 -0.000002 169.030393 -146.656114 239.140195 -2.489501 -4.979690 -2.085292 -2.200979 3.787655 23.932653 -4.160398 -0.000013 0.000001 -34.624538 -25.411647 110.695257 -0.000003 10.253996 -0.000007 153.966056 107.141564 -164.814527 -0.000012 12.768696 0.000000 -211.998485 176.390236 125.159733 2.212401 2.641505 -0.073593 80.115394 -131.222223 103.855977 0.000001 17.950600 -0.000005 51.693908 17.160020 -34.190831 0.000003 19.053898 -0.000003 42.383178 33.047402 -21.111819 -2.162798 2.581300 -0.306092 356.736737 -3.021148 3.901696 -0.000005 18.327099 -0.000001 -334.779646 38.133684 -19.360743 -0.000008 18.423403 -0.000007 24.512516 -19.988808 13.362659 
-18.065195 -45.825703 32.002323 4.054090 -4.134472 9.078576 -0.075999 -8.347795 1.394605 -2.905266 4.770368 4.928878 -0.000004 -3.321608 0.000003 -2.526097 -0.096932 -0.058243 -0.000001 -7.732093 0.000001 9.189592 -44.823332 -3.873192 0.000000 -2.173900 0.000002 4.125164 -6.912252 8.090332 2.718099 -4.670512 -2.003101 -3.391225 -7.950467 -3.305018 4.147107 0.000002 0.000002 -16.885814 30.651843 -114.641037 0.000009 10.254801 -0.000005 -27.012123 -59.352992 -15.313976 0.000001 12.664400 0.000003 172.260554 -143.156161 229.343737 -2.489501 -4.979698 -2.085303 1.871965 1.144191 24.938221 -4.160410 -0.000017 0.000002 -35.678945 -16.443218 109.715610 0.000001 10.253993 -0.000009 174.473016 128.098709 -175.856553 0.000002 12.768716 -0.000004 -210.537958 136.329046 159.313111 2.212397 2.641496 -0.073598 26.046626 -146.342267 69.838261 -0.000001 17.950596 -0.000006 69.800620 19.271679 -65.968296 -0.000000 19.053898 -0.000001 30.864105 26.842742 -17.844586 -2.162797 2.581289 -0.306098 356.298758 -5.480108 1.358072 -0.000006 18.327101 0.000003 -335.424197 33.462500 -19.193433 0.000002 18.423401 0.000004 20.727379 -14.998558 11.669187 
-19.126886 -45.459396 31.794025 2.434099 -1.959824 10.031702 -0.075994 -8.347795 1.394596 -0.742427 2.497649 4.120522 -0.000003 -3.321605 -0.000005 -3.368380 0.791935 0.285035 0.000009 -7.732090 0.000009 2.299888 -49.264543 -7.194555 -0.000010 -2.173898 0.000004 2.810585 -7.864377 8.334507 2.718106 -4.670494 -2.003091 -3.032038 -7.586820 -2.597115 4.147100 -0.000005 -0.000003 -18.664885 28.084696 -110.976374 -0.000012 10.254800 -0.000001 -18.706444 -58.878382 -12.330588 -0.000003 12.664391 -0.000005 180.909349 -118.251079 227.444070 -2.489495 -4.979696 -2.085300 2.039853 3.800722 25.594336 -4.160398 0.000008 -0.000004 -30.502436 -10.123245 104.641934 -0.000003 10.254002 -0.000009 175.706029 128.203812 -177.954650 -0.000001 12.768711 -0.000005 -245.021507 105.183192 210.705885 2.212394 2.641500 -0.073600 12.740442 -158.705729 66.439135 -0.000017 17.950611 -0.000007 131.077846 7.889185 -96.275123 0.000003 19.053900 -0.000002 9.531734 -23.908275 22.153478 -2.162799 2.581293 -0.306098 357.471829 -8.065460 -0.827675 -0.000008 18.327089 -0.000000 -334.328471 34.207824 -20.771497 0.000002 18.423399 -0.000004 19.041956 -15.302462 13.532128 
-20.001787 -45.230801 31.602421 2.328120 -1.424991 11.226040 -0.075998 -8.347807 1.394593 -0.925112 1.960508 3.657290 -0.000005 -3.321608 0.000002 -3.605744 2.714958 -0.083527 -0.000002 -7.732086 -0.000003 -3.750806 -54.480744 -12.917418 -0.000005 -2.173883 -0.000001 2.661683 -7.745873 9.415207 2.718100 -4.670498 -2.003107 -5.274085 -9.772128 -2.917250 4.147106 0.000009 -0.000001 -14.525147 25.690302 -110.686617 0.000006 10.254795 0.000005 -12.584226 -62.706416 -7.463419 -0.000002 12.664394 0.000003 185.113112 -105.457813 220.737275 -2.489501 -4.979685 -2.085305 0.153521 4.523440 24.735064 -4.160399 0.000007 -0.000001 -26.240120 -7.941092 102.755777 -0.000005 10.254006 -0.000003 176.429483 132.552375 -180.726273 -0.000003 12.768701 -0.000007 -278.431405 102.954856 257.496465 2.212397 2.641502 -0.073603 6.574609 -164.453729 68.213031 -0.000016 17.950603 -0.000008 173.684102 -10.496010 -94.489479 -0.000007 19.053905 0.000001 -14.678968 -63.796644 48.109967 -2.162798 2.581288 -0.306102 357.354514 -8.169118 -2.785375 -0.000005 18.327091 -0.000006 -334.355600 31.165030 -20.918163 0.000004 18.423403 -0.000000 16.249346 -14.102210 9.262949 
-20.774904 -45.069912 31.471121 1.879740 -0.783969 11.978633 -0.075996 -8.347801 1.394600 -1.971664 1.128341 3.288422 -0.000002 -3.321606 -0.000001 -3.157478 3.285364 -0.119115 0.000000 -7.732100 -0.000010 -5.794582 -56.019733 -15.802088 -0.000007 -2.173882 0.000002 2.177370 -8.013250 9.629536 2.718102 -4.670516 -2.003104 -3.072948 -6.867436 -2.265170 4.147104 0.000003 0.000006 -14.026521 20.142846 -111.254540 0.000012 10.254801 0.000005 -8.187874 -63.299488 -5.459701 0.000001 12.664397 0.000016 183.377602 -113.088945 215.880505 -2.489503 -4.979708 -2.085306 3.512405 1.805031 24.540878 -4.160402 -0.000015 -0.000002 -22.872444 0.481503 102.410531 -0.000010 10.253995 0.000000 177.564196 137.728811 -181.344869 -0.000003 12.768703 0.000000 -230.519950 107.448124 202.802141 2.212400 2.641508 -0.073602 0.852669 -168.823876 69.323367 -0.000017 17.950609 -0.000003 180.312350 -16.969526 -87.662807 -0.000005 19.053904 0.000003 -18.558990 -66.320638 42.576268 -2.162803 2.581305 -0.306099 357.273453 -8.489173 -3.881298 -0.000008 18.327089 -0.000001 -332.518935 32.619604 -22.752769 -0.000002 18.423403 0.000002 17.489548 -15.607317 15.872173 
-21.494989 -44.994801 31.368927 2.153573 -0.878958 13.160328 -0.075999 -8.347803 1.394601 -3.010871 1.256135 2.438838 -0.000003 -3.321600 -0.000001 -3.104281 3.730375 -0.086357 -0.000007 -7.732098 -0.000011 -8.592730 -56.813145 -19.020395 0.000004 -2.173908 0.000002 2.100950 -7.816778 9.495131 2.718095 -4.670513 -2.003106 -2.365329 -6.717654 -2.513137 4.147111 0.000008 0.000004 -13.684142 17.191339 -109.293279 0.000015 10.254804 0.000002 -8.697313 -61.282001 -5.696547 -0.000000 12.664403 -0.000001 182.479719 -111.861191 213.865627 -2.489510 -4.979708 -2.085312 2.089629 -0.744220 23.229258 -4.160408 -0.000002 -0.000003 -19.582685 3.122660 101.542879 -0.000002 10.253987 -0.000002 177.553868 140.616656 -180.523908 -0.000009 12.768696 -0.000007 -238.580038 104.805537 209.994494 2.212396 2.641503 -0.073598 0.995875 -168.773647 71.303760 -0.000013 17.950613 0.000005 178.999819 -16.025907 -83.891737 -0.000003 19.053902 0.000002 -4.797518 -61.207388 41.768075 -2.162797 2.581299 -0.306095 356.526394 -7.834948 -5.623604 -0.000001 18.327097 -0.000001 -332.341268 29.504495 -22.327052 -0.000004 18.423401 -0.000002 15.793759 -14.907221 11.001676 
-22.171503 -44.914898 31.318220 1.098231 -0.969653 13.119039 -0.076003 -8.347791 1.394589 -1.878401 1.082940 3.976044 -0.000002 -3.321607 -0.000001 -3.047027 3.136882 -0.127508 -0.000008 -7.732096 0.000004 -12.317199 -56.232551 -22.528307 0.000000 -2.173908 -0.000006 1.119639 -8.087499 9.454707 2.718090 -4.670506 -2.003095 -2.881741 -6.043769 -3.087327 4.147095 0.000004 0.000000 -11.964991 16.399253 -109.363541 0.000011 10.254804 0.000003 -6.793374 -69.535711 -4.839662 -0.000001 12.664396 -0.000004 183.793287 -119.975920 215.851053 -2.489504 -4.979694 -2.085303 1.715743 0.255599 21.455822 -4.160405 0.000004 -0.000000 -19.760750 3.943170 100.387812 -0.000005 10.253996 -0.000004 176.826371 135.841685 -180.935331 -0.000003 12.768698 0.000003 -241.835880 103.003433 220.377023 2.212392 2.641510 -0.073604 1.936869 -168.552635 71.665698 -0.000004 17.950617 -0.000002 177.139549 -16.145138 -81.162018 -0.000008 19.053905 -0.000003 -3.394031 -59.410672 39.014290 -2.162807 2.581307 -0.306108 356.555682 -6.976254 -6.564344 -0.000011 18.327091 0.000002 -330.797673 27.941218 -21.877892 -0.000002 18.423397 -0.000007 16.074213 -13.350200 15.708035 
-22.735403 -44.761002 31.289621 0.811681 -1.136116 12.907998 -0.076003 -8.347795 1.394598 -1.697237 1.145341 4.891583 -0.000004 -3.321604 0.000001 -3.239053 2.494383 -0.072254 -0.000002 -7.732107 0.000007 -14.794574 -56.469986 -25.053984 -0.000001 -2.173890 0.000005 0.895700 -7.400140 9.357584 2.718101 -4.670510 -2.003096 -2.274045 -5.688281 -2.837074 4.147101 0.000007 -0.000000 -11.501496 16.302982 -109.451616 -0.000001 10.254805 -0.000002 -3.741518 -60.644532 -2.778616 -0.000006 12.664398 0.000003 187.896838 -109.750430 216.716438 -2.489505 -4.979702 -2.085300 1.576351 1.506478 20.309788 -4.160409 0.000004 -0.000000 -17.076675 4.801451 99.389832 0.000003 10.253995 -0.000003 176.617367 134.779399 -180.952256 -0.000006 12.768708 -0.000004 -248.854555 101.660194 229.097700 2.212390 2.641504 -0.073603 2.231406 -168.351787 71.839042 -0.000008 17.950607 -0.000008 180.277761 -15.876194 -78.169131 0.000001 19.053907 0.000003 -6.115222 -61.770906 38.872044 -2.162805 2.581300 -0.306100 356.626224 -7.831200 -6.948230 -0.000005 18.327099 -0.000003 -330.815404 26.686630 -22.286144 -0.000002 18.423399 -0.000009 14.065425 -12.478905 9.997494 
-23.229689 -44.628605 31.291420 1.166815 -1.185583 13.421184 -0.076001 -8.347798 1.394597 -2.178933 1.263526 4.779055 0.000005 -3.321611 0.000003 -3.326547 2.543687 -0.075553 0.000005 -7.732098 0.000004 -17.193898 -57.435211 -27.251794 0.000002 -2.173890 0.000010 0.947472 -7.004232 9.590559 2.718110 -4.670500 -2.003090 -3.031539 -6.596297 -3.007451 4.147108 -0.000002 0.000000 -9.270225 15.879625 -108.901513 -0.000000 10.254797 0.000003 -2.745379 -59.628303 -2.188226 -0.000006 12.664398 0.000004 191.772178 -108.008650 219.824420 -2.489491 -4.979694 -2.085294 1.706690 1.725864 20.795996 -4.160418 0.000002 -0.000001 -16.749767 6.129406 97.615780 0.000002 10.254015 -0.000004 176.930231 137.717733 -181.267087 0.000005 12.768713 -0.000000 -254.861733 101.608565 233.773606 2.212394 2.641500 -0.073602 5.282093 -166.116539 73.402199 -0.000003 17.950615 -0.000001 178.366224 -12.879544 -76.796728 -0.000004 19.053905 0.000003 -3.569013 -60.630893 39.928063 -2.162799 2.581305 -0.306097 356.082541 -7.041358 -7.959174 -0.000006 18.327101 -0.000007 -329.929665 27.986758 -22.794269 -0.000005 18.423399 -0.000001 14.414377 -14.344007 12.251017 
-23.619791 -44.510696 31.305618 0.933004 -1.133622 13.448520 -0.075998 -8.347796 1.394601 -1.851005 1.165267 5.125994 -0.000010 -3.321605 0.000001 -3.497150 2.424244 -0.079324 0.000000 -7.732090 -0.000004 -19.039648 -57.694307 -28.178849 -0.000004 -2.173900 -0.000003 0.734178 -7.749255 9.322991 2.718100 -4.670494 -2.003106 -2.196261 -6.139364 -2.711973 4.147095 0.000001 0.000000 -9.886791 14.870985 -108.034318 0.000016 10.254802 0.000001 -2.554219 -59.992803 -2.119749 -0.000007 12.664399 0.000007 191.237442 -107.477220 218.977204 -2.489500 -4.979701 -2.085306 3.230871 0.279278 19.244118 -4.160411 0.000005 0.000001 -13.953854 9.201614 98.198586 -0.000000 10.254010 0.000001 177.086820 135.741745 -181.409401 -0.000005 12.768713 -0.000004 -261.774814 101.132159 241.883937 2.212397 2.641500 -0.073605 5.464208 -165.797938 73.408817 -0.000012 17.950613 -0.000003 178.760858 -13.030728 -76.118107 -0.000004 19.053902 0.000009 -3.823431 -60.515845 40.765711 -2.162803 2.581292 -0.306099 356.169995 -6.831540 -8.190327 -0.000008 18.327099 -0.000002 -329.348307 27.821659 -23.206749 -0.000004 18.423405 0.000004 13.906492 -15.094366 13.307033 
